<?xml version="1.0" standalone="no"?>
<!DOCTYPE svg PUBLIC "-//W3C//DTD SVG 20010904//EN"
 "http://www.w3.org/TR/2001/REC-SVG-20010904/DTD/svg10.dtd">
<svg version="1.0" xmlns="http://www.w3.org/2000/svg"
 width="1120.000000pt" height="1120.000000pt" viewBox="0 0 1120.000000 1120.000000"
 preserveAspectRatio="xMidYMid meet">

<g transform="translate(0.000000,1120.000000) scale(0.100000,-0.100000)"
fill="#000000" stroke="none">
<path d="M2597 6518 c-13 -29 -90 -211 -172 -405 -81 -194 -152 -350 -157
-347 -5 3 -8 2 -7 -3 2 -14 -13 -53 -21 -53 -4 0 -10 -8 -14 -17 -3 -10 -11
-31 -17 -48 -6 -16 -12 -43 -15 -60 -6 -42 -61 -155 -75 -155 -7 0 -9 -3 -6
-7 4 -3 -1 -15 -10 -26 -10 -11 -13 -18 -7 -14 6 3 11 0 11 -8 0 -8 -5 -13
-11 -12 -6 1 -11 -10 -11 -24 0 -16 -4 -25 -11 -22 -7 3 -10 -6 -8 -24 3 -20
2 -23 -4 -10 -4 10 -11 18 -15 18 -29 -3 -47 1 -42 9 3 6 1 10 -4 10 -17 0
-13 -14 9 -38 l21 -22 -21 0 c-14 0 -20 -7 -20 -22 0 -19 -2 -20 -10 -8 -14
22 -12 11 8 -43 10 -26 21 -45 24 -41 4 3 4 -3 1 -14 -4 -18 26 -99 186 -502
l17 -45 76 -3 c55 -2 77 1 81 10 81 198 167 402 199 468 22 46 93 208 158 360
65 151 134 311 153 355 52 118 315 739 327 769 l10 26 -300 0 -300 0 -23 -52z"/>
<path d="M1452 6546 c18 -10 37 -12 55 -7 16 4 37 6 48 4 11 -2 28 -5 37 -7
10 -1 21 -5 24 -9 11 -11 56 -8 49 3 -3 6 3 10 14 10 28 0 26 -7 -10 -41 -21
-20 -38 -28 -50 -24 -11 4 -19 2 -19 -4 0 -19 52 -12 71 10 10 11 22 18 28 15
14 -9 2 -36 -15 -36 -25 0 -53 -37 -47 -62 4 -18 3 -20 -6 -8 -8 11 -10 0 -8
-42 2 -31 -1 -54 -6 -51 -4 2 -14 0 -21 -7 -18 -14 -9 -91 12 -106 8 -6 12
-16 8 -22 -4 -7 -2 -12 3 -12 6 0 11 -7 11 -16 0 -8 5 -12 10 -9 6 3 10 -1 10
-10 0 -9 4 -14 9 -10 5 3 12 -7 14 -22 3 -16 5 -3 4 27 0 30 -4 60 -8 65 -7 9
-6 36 1 55 1 3 2 9 1 13 -1 5 3 6 9 2 5 -3 10 -1 10 4 0 6 -11 11 -25 11 -17
0 -25 5 -25 18 0 37 39 54 65 28 11 -11 12 -20 3 -43 -13 -34 -5 -74 18 -97
20 -21 27 -20 42 5 8 12 9 18 3 14 -6 -3 -11 -1 -11 4 0 6 14 11 30 11 19 0
29 5 28 13 -2 6 2 11 9 10 7 -2 10 9 7 30 -8 54 -11 58 -44 52 -27 -5 -32 -1
-29 21 0 4 -5 10 -12 15 -11 6 -11 14 -1 42 18 50 15 73 -15 95 -27 20 -25 42
6 42 9 0 22 5 29 12 9 9 12 9 12 0 0 -18 99 -16 106 2 3 8 16 13 29 11 13 -1
29 2 37 6 7 5 -108 9 -257 9 -240 0 -267 -2 -243 -14z m278 -206 c0 -5 -7 -7
-15 -4 -8 4 -15 8 -15 10 0 2 7 4 15 4 8 0 15 -4 15 -10z m-65 -190 c3 -5 -1
-10 -9 -10 -9 0 -16 5 -16 10 0 6 4 10 9 10 6 0 13 -4 16 -10z"/>
<path d="M1540 6530 c-9 -6 -10 -10 -3 -10 6 0 15 5 18 10 8 12 4 12 -15 0z"/>
<path d="M1966 6527 c3 -10 9 -15 12 -12 3 3 0 11 -7 18 -10 9 -11 8 -5 -6z"/>
<path d="M1620 6490 c0 -5 5 -10 10 -10 6 0 10 5 10 10 0 6 -4 10 -10 10 -5 0
-10 -4 -10 -10z"/>
<path d="M1540 6451 c0 -6 5 -13 11 -16 7 -5 4 -14 -8 -27 -12 -14 -13 -19 -3
-16 10 2 13 -8 11 -44 -2 -45 -1 -48 22 -48 24 0 42 21 30 34 -12 12 -25 6
-20 -8 4 -10 1 -13 -9 -9 -16 6 -19 23 -4 23 17 0 11 42 -7 56 -15 11 -15 13
-3 14 8 0 21 4 29 9 12 8 12 12 -2 25 -17 17 -47 22 -47 7z"/>
<path d="M3661 6023 c-5 -10 -37 -90 -71 -178 -34 -88 -103 -261 -152 -385
-50 -124 -113 -281 -140 -350 -27 -69 -52 -131 -55 -137 -4 -10 20 -13 100
-13 l105 0 27 70 27 70 262 0 263 0 27 -70 28 -70 104 0 c57 0 104 2 104 4 0
10 -165 431 -352 899 l-71 177 -98 0 c-83 0 -100 -3 -108 -17z m200 -510 c49
-120 87 -219 85 -220 -2 -2 -84 -2 -183 -1 l-180 3 90 223 c49 122 92 220 95
217 3 -3 45 -103 93 -222z"/>
<path d="M4427 6033 c-2 -5 -1 -248 1 -540 l4 -533 99 0 99 0 0 185 0 185 85
0 84 0 49 -72 c27 -40 79 -124 116 -185 l67 -113 110 0 c60 0 109 4 109 8 0 4
-41 75 -91 158 -51 82 -100 163 -111 180 l-19 32 43 25 c123 73 185 207 166
364 -17 145 -120 258 -273 297 -45 12 -114 16 -297 16 -130 0 -238 -3 -241 -7z
m541 -213 c92 -57 107 -199 27 -269 l-36 -31 -164 0 -165 0 0 160 0 160 153 0
c134 0 156 -2 185 -20z"/>
<path d="M5419 6036 c-2 -2 -3 -245 -1 -540 l2 -536 256 0 c246 0 258 1 330
25 95 32 145 64 215 136 201 208 196 552 -11 759 -130 131 -235 160 -569 160
-120 0 -220 -2 -222 -4z m574 -226 c62 -31 122 -96 155 -168 66 -142 13 -346
-111 -430 -66 -45 -97 -51 -265 -53 l-157 -1 -3 342 -2 341 167 -3 c155 -3
172 -5 216 -28z"/>
<path d="M6502 5503 l3 -538 100 0 100 0 -2 228 -2 227 285 0 284 0 0 -230 0
-231 103 3 102 3 0 535 0 535 -100 0 -100 0 -3 -207 -2 -208 -168 -1 c-92 0
-196 -3 -232 -6 -36 -2 -89 -1 -118 2 l-54 7 2 161 c1 89 2 183 1 210 l-1 47
-100 0 -100 0 2 -537z"/>
<path d="M7892 5763 c-61 -153 -156 -389 -211 -526 -56 -136 -101 -253 -101
-260 0 -13 8 -13 141 -9 l56 2 28 65 27 65 273 0 272 0 28 -70 28 -70 104 0
c104 0 104 0 97 23 -14 46 -136 353 -261 662 -72 176 -136 337 -144 358 l-13
37 -107 0 -106 0 -111 -277z m313 -238 c47 -115 89 -216 92 -222 4 -10 -37
-13 -186 -13 -126 0 -191 4 -191 10 0 6 8 27 19 48 10 20 51 119 91 220 40
101 77 179 81 175 4 -4 46 -102 94 -218z"/>
<path d="M8750 5500 l0 -540 100 0 100 0 0 183 c0 100 3 259 7 353 l6 171 77
-91 c42 -50 134 -163 205 -251 71 -88 166 -206 213 -262 l84 -103 89 0 89 0 0
540 0 540 -100 0 -100 0 -2 -361 -3 -362 -260 319 c-143 176 -277 338 -299
362 l-39 42 -83 0 -84 0 0 -540z"/>
<path d="M3107 5848 c-42 -101 -115 -273 -163 -383 -48 -110 -153 -354 -234
-542 l-148 -343 97 0 96 1 119 282 c94 222 351 816 487 1125 l18 42 -97 0 -98
0 -77 -182z"/>
<path d="M1950 5422 c0 -10 7 -19 15 -19 8 0 15 2 15 4 0 3 -7 11 -15 19 -13
14 -15 13 -15 -4z"/>
<path d="M2055 5379 c-4 -6 -5 -12 -2 -15 2 -3 7 2 10 11 7 17 1 20 -8 4z"/>
<path d="M3290 4773 c0 -15 53 -168 61 -177 5 -6 10 -4 13 5 2 8 12 36 22 63
l18 48 29 -57 c16 -32 32 -54 36 -49 5 5 20 44 34 86 21 64 23 77 11 82 -14 6
-18 0 -49 -79 -7 -17 -11 -13 -28 28 -23 53 -33 58 -47 22 -35 -88 -30 -86
-52 -22 -12 33 -26 57 -34 57 -8 0 -14 -3 -14 -7z"/>
<path d="M4508 4773 l-48 -4 0 -90 0 -90 47 3 c56 4 73 28 19 28 -32 0 -36 3
-36 25 0 21 5 25 30 25 20 0 30 5 30 15 0 10 -10 15 -30 15 -23 0 -30 4 -30
20 0 19 14 24 58 23 6 -1 12 8 12 18 0 11 -1 18 -2 17 -2 -1 -24 -3 -50 -5z"/>
<path d="M4612 4768 c48 -135 63 -168 72 -168 6 0 25 35 41 78 39 100 39 102
22 102 -8 0 -24 -24 -37 -56 -13 -30 -26 -52 -30 -47 -4 4 -15 29 -25 56 -10
27 -24 47 -32 47 -9 0 -13 -6 -11 -12z"/>
<path d="M4827 4774 c-4 -4 -7 -45 -7 -90 0 -80 1 -84 24 -90 36 -9 71 -1 71
16 0 10 -12 16 -32 18 -43 4 -47 39 -5 44 16 2 27 9 27 18 0 9 -11 16 -27 18
-20 2 -28 9 -28 23 0 15 7 19 35 19 19 0 35 5 35 10 0 6 -13 10 -29 10 -16 0
-36 2 -43 5 -8 3 -17 2 -21 -1z"/>
<path d="M4990 4690 l0 -90 55 0 c30 0 55 5 55 10 0 6 -16 10 -35 10 l-35 0 0
49 c0 68 -10 111 -26 111 -11 0 -14 -20 -14 -90z"/>
<path d="M5177 4760 c-28 -22 -43 -74 -32 -109 11 -36 34 -51 80 -51 35 0 48
5 64 26 35 45 25 116 -20 139 -38 20 -62 19 -92 -5z m94 -44 c8 -16 8 -34 2
-53 -8 -23 -15 -28 -43 -28 -27 0 -38 6 -49 26 -13 24 -13 29 2 53 23 35 73
36 88 2z"/>
<path d="M5387 4773 c-4 -3 -7 -43 -7 -89 0 -62 3 -83 14 -87 11 -4 16 4 18
31 3 32 7 37 29 40 15 2 35 12 45 23 14 16 15 23 6 44 -16 34 -85 59 -105 38z
m69 -45 c7 -12 -15 -38 -32 -38 -9 0 -14 11 -14 29 0 24 3 28 20 24 11 -3 23
-10 26 -15z"/>
<path d="M5792 4688 c3 -89 4 -93 27 -96 30 -5 71 6 71 18 0 6 -16 10 -35 10
-31 0 -35 3 -35 25 0 21 5 25 30 25 20 0 30 5 30 15 0 10 -10 15 -30 15 -26 0
-30 4 -30 26 0 25 2 26 35 21 30 -5 35 -3 35 14 0 16 -7 19 -50 19 l-51 0 3
-92z"/>
<path d="M5960 4690 c0 -72 3 -90 14 -90 11 0 16 15 18 52 l3 53 40 -52 c38
-50 74 -72 61 -37 -3 9 -6 49 -6 90 0 43 -4 74 -10 74 -5 0 -10 -20 -10 -44 0
-25 -4 -47 -9 -51 -6 -3 -25 15 -43 39 -52 71 -58 68 -58 -34z"/>
<path d="M6442 4768 c-7 -7 -12 -24 -12 -39 0 -14 -5 -40 -11 -57 -7 -21 -7
-36 0 -50 13 -25 55 -36 82 -22 15 9 24 8 36 -2 15 -12 16 -10 9 15 -4 18 -2
34 5 43 9 12 9 18 0 27 -9 9 -14 9 -20 -1 -6 -10 -11 -10 -21 3 -10 12 -10 19
-2 27 16 16 15 34 -4 52 -18 19 -45 21 -62 4z m52 -27 c9 -14 -4 -41 -19 -41
-18 0 -28 17 -21 35 6 17 32 20 40 6z m-1 -84 c8 -20 -9 -41 -27 -34 -23 9
-21 47 3 47 10 0 21 -6 24 -13z"/>
<path d="M6717 4773 c-4 -3 -7 -46 -7 -95 0 -80 2 -89 18 -86 13 2 16 11 14
36 -4 39 24 46 34 7 7 -29 29 -49 43 -40 7 4 6 18 -4 41 -13 31 -13 38 1 59
20 30 10 63 -23 76 -28 11 -67 12 -76 2z m61 -32 c21 -13 10 -46 -16 -49 -17
-3 -22 1 -22 21 0 35 13 45 38 28z"/>
<path d="M6905 4768 c-2 -7 -5 -48 -7 -91 -3 -86 2 -93 68 -85 43 5 43 28 0
28 -31 0 -36 3 -36 24 0 19 6 25 28 28 16 2 27 9 27 18 0 10 -8 14 -27 12 -24
-3 -28 0 -28 22 0 23 4 26 36 26 51 0 39 24 -14 28 -28 2 -44 -1 -47 -10z"/>
<path d="M7475 4768 c-11 -6 -26 -18 -32 -26 -18 -22 -16 -93 2 -119 32 -46
113 -36 140 18 28 53 15 98 -35 124 -34 18 -48 18 -75 3z m73 -40 c22 -22 15
-76 -13 -94 -23 -15 -27 -15 -50 0 -18 12 -25 25 -25 49 0 40 15 57 50 57 14
0 31 -5 38 -12z"/>
<path d="M7777 4774 c-4 -4 -7 -28 -7 -53 l0 -46 -41 48 c-22 26 -45 47 -50
47 -5 0 -9 -41 -9 -91 0 -68 3 -90 13 -87 6 3 14 28 17 57 l5 53 40 -50 c58
-74 67 -70 63 35 -3 79 -12 105 -31 87z"/>
<path d="M7903 4765 c-41 -29 -27 -71 31 -100 36 -18 26 -40 -16 -38 -27 2
-38 -2 -38 -12 0 -18 50 -28 83 -16 46 18 32 78 -23 101 -37 15 -34 35 6 36
16 0 30 4 32 7 13 28 -43 44 -75 22z"/>
<path d="M8077 4773 c-4 -3 -7 -44 -7 -90 0 -67 3 -83 15 -83 12 0 15 17 15
90 0 83 -5 101 -23 83z"/>
<path d="M8293 4743 c-8 -21 -20 -49 -25 -63 -10 -24 -12 -22 -32 33 -15 41
-26 57 -39 57 -10 0 -17 -3 -15 -7 2 -5 17 -43 33 -85 17 -43 35 -78 41 -78
12 0 24 23 60 114 28 71 28 66 8 66 -8 0 -22 -17 -31 -37z"/>
<path d="M8727 4773 c-3 -5 -6 -46 -8 -93 l-4 -84 45 2 c65 4 79 10 95 42 29
56 14 103 -40 126 -37 15 -81 19 -88 7z m91 -45 c7 -7 12 -26 12 -43 0 -38
-16 -55 -52 -55 -27 0 -28 1 -28 55 0 54 1 55 28 55 15 0 33 -5 40 -12z"/>
<path d="M8947 4774 c-4 -4 -7 -47 -7 -96 l0 -89 47 3 c55 4 70 25 21 30 -25
2 -34 8 -36 25 -3 17 3 22 24 25 39 4 43 28 5 28 -26 0 -31 4 -31 25 0 22 4
25 36 25 24 0 34 4 32 13 -5 13 -79 22 -91 11z"/>
<path d="M9118 4769 c-11 -6 -18 -22 -18 -40 0 -23 7 -34 35 -50 19 -12 35
-27 35 -35 0 -19 -28 -30 -43 -15 -16 16 -27 13 -27 -8 0 -48 102 -29 108 21
3 22 -4 32 -38 53 -47 30 -48 51 -1 47 21 -1 31 2 31 12 0 25 -50 34 -82 15z"/>
<path d="M9287 4773 c-4 -3 -7 -44 -7 -90 0 -64 3 -83 14 -83 15 0 26 50 26
128 0 37 -4 52 -13 52 -8 0 -17 -3 -20 -7z"/>
<path d="M9430 4761 c-42 -22 -61 -75 -42 -116 16 -34 75 -59 110 -47 23 7 27
14 27 48 0 37 -2 39 -32 42 -28 3 -33 0 -33 -18 0 -12 4 -19 8 -16 4 2 14 0
22 -5 24 -15 -8 -29 -39 -17 -71 27 -47 108 32 108 43 0 49 16 11 30 -31 12
-23 13 -64 -9z"/>
<path d="M9610 4698 c0 -49 0 -91 0 -95 0 -5 6 -8 13 -8 7 0 13 18 15 49 l3
49 55 -54 54 -53 0 74 c0 41 -3 85 -6 98 -11 38 -29 19 -32 -33 l-3 -49 -49
54 -49 55 -1 -87z"/>
<path d="M3599 4695 c-1 -41 -2 -80 -3 -87 -1 -14 50 -18 82 -6 30 11 19 28
-19 28 -22 0 -29 5 -29 20 0 16 7 20 31 20 24 0 30 4 27 18 -2 12 -11 16 -31
14 -22 -3 -27 1 -27 17 0 17 6 21 30 21 20 0 30 5 30 15 0 11 -12 15 -45 15
l-45 0 -1 -75z"/>
<path d="M3768 4685 l-3 -85 51 0 c27 0 55 5 62 12 16 16 15 41 0 57 -7 6 -13
31 -13 54 l0 42 -47 3 -47 3 -3 -86z m72 34 c0 -12 -7 -19 -20 -19 -19 0 -28
28 -14 43 11 11 34 -5 34 -24z m8 -71 c3 -13 -3 -18 -22 -18 -20 0 -26 5 -26
21 0 15 5 20 22 17 13 -2 24 -11 26 -20z"/>
<path d="M4240 4679 l0 -91 53 7 c70 9 97 35 97 91 0 57 -33 84 -101 84 l-49
0 0 -91z m106 36 c21 -32 7 -71 -32 -85 -37 -14 -44 -6 -44 56 0 53 0 54 30
54 21 0 35 -8 46 -25z"/>
<path d="M5566 4698 c-4 -40 -9 -81 -12 -90 -3 -12 0 -18 10 -18 17 0 30 50
21 82 -6 22 -6 22 9 4 9 -11 16 -25 16 -32 0 -6 7 -17 15 -24 12 -10 18 -6 34
21 l20 32 6 -37 c4 -21 13 -36 22 -36 11 0 13 14 7 78 -8 89 -17 107 -33 60
-6 -18 -20 -44 -30 -57 l-18 -24 -26 57 c-14 31 -28 56 -30 56 -2 0 -7 -33
-11 -72z"/>
<path d="M6150 4761 c0 -5 10 -11 23 -13 20 -3 22 -10 27 -78 3 -41 10 -75 15
-75 6 0 11 32 13 72 3 64 5 72 24 75 12 2 23 9 26 16 3 9 -14 12 -62 12 -36 0
-66 -4 -66 -9z"/>
<path d="M7070 4755 c-19 -23 -3 -61 36 -85 34 -19 36 -22 21 -37 -13 -14 -21
-15 -42 -5 -23 11 -26 10 -23 -4 5 -27 33 -40 64 -29 59 21 58 80 -2 109 -33
15 -36 19 -22 33 13 12 20 13 38 3 25 -13 35 -8 27 15 -8 20 -80 20 -97 0z"/>
<path d="M7250 4680 c0 -73 3 -90 15 -90 10 0 15 11 15 35 0 31 3 35 25 35 30
0 65 32 65 59 0 32 -28 51 -76 51 l-44 0 0 -90z m78 38 c-2 -15 -11 -24 -25
-26 -19 -3 -23 1 -23 22 0 21 5 26 26 26 21 0 25 -4 22 -22z"/>
<path d="M8400 4685 l0 -85 55 0 c45 0 53 3 48 16 -4 10 -16 14 -37 12 -26 -2
-32 1 -34 20 -3 19 1 22 27 22 40 0 42 27 4 32 -20 2 -28 9 -28 23 0 15 8 21
33 23 51 5 37 22 -18 22 l-50 0 0 -85z"/>
</g>
</svg>
