<?xml version="1.0" encoding="UTF-8"?>
<svg version="1.1" xmlns="http://www.w3.org/2000/svg" width="500" height="500">
<path d="M0 0 C1.43352212 0.00015908 2.86704998 0.00585132 4.30053711 0.01586914 C5.43041298 0.01799156 5.43041298 0.01799156 6.58311462 0.02015686 C8.99807646 0.02577163 11.41294687 0.03832656 13.82788086 0.05102539 C15.46134307 0.05603849 17.09480672 0.06060173 18.72827148 0.06469727 C22.74067671 0.07574585 26.75301326 0.09302033 30.76538086 0.11352539 C28.31349775 8.08859782 25.0068941 15.57797387 21.57788086 23.17602539 C18.70069336 29.58008789 18.70069336 29.58008789 15.76538086 36.11352539 C25.99538086 36.44352539 36.22538086 36.77352539 46.76538086 37.11352539 C48.41538086 40.70227539 50.06538086 44.29102539 51.76538086 47.98852539 C52.28745117 49.11887207 52.80952148 50.24921875 53.34741211 51.41381836 C53.7534668 52.30214355 54.15952148 53.19046875 54.57788086 54.10571289 C54.99682617 55.01691895 55.41577148 55.928125 55.84741211 56.86694336 C56.76538086 59.11352539 56.76538086 59.11352539 56.76538086 61.11352539 C57.42538086 61.11352539 58.08538086 61.11352539 58.76538086 61.11352539 C59.11600586 59.93790039 59.46663086 58.76227539 59.82788086 57.55102539 C62.32358531 50.54695161 65.62104641 43.85138493 68.76538086 37.11352539 C79.98538086 37.11352539 91.20538086 37.11352539 102.76538086 37.11352539 C100.76015276 43.12920969 98.71986057 48.75691556 96.09741211 54.47680664 C95.7453772 55.25456955 95.39334229 56.03233246 95.03063965 56.83366394 C94.27556486 58.50073588 93.51852515 60.16691902 92.75967407 61.83227539 C91.14661886 65.37254108 89.54338397 68.91722375 87.93974304 72.46176147 C87.11216607 74.29092721 86.28412927 76.11988498 85.4556427 77.94863892 C81.28827606 87.15189494 77.17676627 96.37960924 73.07788086 105.61352539 C72.43767197 107.05404055 71.79745413 108.49455173 71.15722656 109.93505859 C66.99241027 119.312982 62.86932505 128.70881712 58.76538086 138.11352539 C58.10538086 138.11352539 57.44538086 138.11352539 56.76538086 138.11352539 C45.3548748 112.81439358 33.98219036 87.49922772 22.76538086 62.11352539 C22.34844971 61.17074738 22.34844971 61.17074738 21.9230957 60.20892334 C20.19704752 56.30509182 18.47860862 52.3979986 16.76538086 48.48852539 C16.3496582 47.54614014 15.93393555 46.60375488 15.50561523 45.6328125 C15.13758789 44.78855713 14.76956055 43.94430176 14.39038086 43.07446289 C14.07327148 42.35049316 13.75616211 41.62652344 13.42944336 40.88061523 C12.76538086 39.11352539 12.76538086 39.11352539 12.76538086 37.11352539 C2.20538086 37.11352539 -8.35461914 37.11352539 -19.23461914 37.11352539 C-17.4007494 31.61191618 -15.68357448 26.59143799 -13.35180664 21.36352539 C-12.82458008 20.17887695 -12.29735352 18.99422852 -11.75415039 17.77368164 C-11.48425293 17.17313965 -11.21435547 16.57259766 -10.9362793 15.95385742 C-10.09965305 14.09133863 -9.27022247 12.22573298 -8.44165039 10.35961914 C-3.87411438 0.13596975 -3.87411438 0.13596975 0 0 Z " fill="#34383B" transform="translate(187.234619140625,204.886474609375)"/>
<path d="M0 0 C11.22 0 22.44 0 34 0 C38.3435174 8.53190917 42.5771583 17.07865962 46.5 25.8125 C46.84998047 26.58255371 47.19996094 27.35260742 47.56054688 28.14599609 C50 33.63967398 50 33.63967398 50 37 C38.78 37 27.56 37 16 37 C13.71964549 31.89210769 11.44040664 26.78374867 9.1640625 21.67407227 C8.38868653 19.93451758 7.61264589 18.195259 6.8359375 16.45629883 C5.72222482 13.96251999 4.61087544 11.4677 3.5 8.97265625 C3.15001953 8.19036148 2.80003906 7.40806671 2.43945312 6.60206604 C0 1.11387171 0 1.11387171 0 0 Z " fill="#34383B" transform="translate(274,205)"/>
<path d="" fill="#303335" transform="translate(0,0)"/>
<path d="" fill="#2D3537" transform="translate(0,0)"/>
<path d="" fill="#2D3535" transform="translate(0,0)"/>
<path d="" fill="#2F363A" transform="translate(0,0)"/>
<path d="" fill="#2D3131" transform="translate(0,0)"/>
<path d="" fill="#2B3232" transform="translate(0,0)"/>
<path d="" fill="#2B3232" transform="translate(0,0)"/>
<path d="" fill="#2E3535" transform="translate(0,0)"/>
<path d="" fill="#2C3336" transform="translate(0,0)"/>
<path d="" fill="#2B3232" transform="translate(0,0)"/>
<path d="" fill="#2C3236" transform="translate(0,0)"/>
<path d="" fill="#2E3335" transform="translate(0,0)"/>
<path d="" fill="#2D3434" transform="translate(0,0)"/>
<path d="" fill="#292D36" transform="translate(0,0)"/>
<path d="" fill="#2C3030" transform="translate(0,0)"/>
</svg>
